<svg width="139" height="139" xmlns="http://www.w3.org/2000/svg">

 <g>
  <title>background</title>
  <rect fill="none" id="canvas_background" height="402" width="582" y="-1" x="-1"/>
 </g>
 <g>
  <title>Layer 1</title>
  <path fill="#0099cc" id="svg_1" d="m105.431,12.668l-71.861,0c-4.842,0 -8.764,3.923 -8.764,8.764l0,95.819c0,4.841 3.922,8.764 8.764,8.764l71.86,0c4.841,0 8.764,-3.923 8.764,-8.764l0,-95.819c0,-4.84 -3.923,-8.764 -8.763,-8.764zm-7.45,82.869l-56.963,0l0,-8.764l56.964,0l0,8.764l-0.001,0zm0,-23.66l-56.963,0l0,-8.764l56.964,0l0,8.764l-0.001,0zm0,-23.662l-56.963,0l0,-8.764l56.964,0l0,8.764l-0.001,0z"/>
 </g>
</svg>