<svg width="18.588" height="21.396" xmlns="http://www.w3.org/2000/svg">

 <g>
  <title>background</title>
  <rect fill="none" id="canvas_background" height="402" width="582" y="-1" x="-1"/>
 </g>
 <g>
  <title>Layer 1</title>
  <path id="svg_1" fill-rule="evenodd" clip-rule="evenodd" fill="#0099cc" d="m0.012,2.552c0.018,1.33 0.009,2.683 0,4.036c-0.011,1.352 -0.02,2.706 -0.002,4.036c-0.018,1.329 -0.009,2.682 0.001,4.035c0.009,1.354 0.019,2.706 0,4.036c2.696,3.602 15.868,3.602 18.564,0c-0.019,-1.33 -0.009,-2.683 0,-4.036c0.009,-1.353 0.019,-2.706 0.001,-4.035c0.018,-1.33 0.008,-2.683 -0.001,-4.036s-0.019,-2.706 0,-4.036c-6.226,-4.842 -17.869,-1.595 -18.563,0l0,0zm17.259,1.926c0.002,0.503 0.005,0.825 0.008,1.33c0.008,1.264 -0.006,2.873 -0.022,4.114c0.016,1.242 0.007,2.505 -0.001,3.769c-0.008,1.264 -0.017,3.054 0,4.296c-2.025,2.946 -13.779,3.118 -15.918,0.006c0.015,-1.242 0.007,-3.038 -0.001,-4.302c-0.008,-1.264 -0.016,-2.527 0,-3.769c-0.016,-1.242 0.015,-2.851 0.023,-4.114c0.003,-0.505 0.007,-0.826 0.008,-1.33c1.39,1.113 4.428,1.702 7.951,1.702s6.562,-0.589 7.952,-1.702z"/>
  <g id="svg_2"/>
  <g id="svg_3"/>
  <g id="svg_4"/>
  <g id="svg_5"/>
  <g id="svg_6"/>
  <g id="svg_7"/>
  <g id="svg_8"/>
  <g id="svg_9"/>
  <g id="svg_10"/>
  <g id="svg_11"/>
  <g id="svg_12"/>
  <g id="svg_13"/>
  <g id="svg_14"/>
  <g id="svg_15"/>
  <g id="svg_16"/>
 </g>
</svg>