<svg width="500" height="500" xmlns="http://www.w3.org/2000/svg">

 <g>
  <title>background</title>
  <rect fill="none" id="canvas_background" height="402" width="582" y="-1" x="-1"/>
 </g>
 <g>
  <title>Layer 1</title>
  <path id="svg_1" fill-rule="evenodd" fill="#0099cc" d="m109.676,329.772c0,76.403 63.053,138.278 140.825,138.278c77.778,0 140.823,-61.875 140.823,-138.278c0,-97.943 -109.29,-161.542 -118.108,-270.567l0,-4.543c0,-12.536 -10.179,-22.713 -22.715,-22.713c-12.537,0 -22.713,10.177 -22.713,22.713l0,4.543c-9.087,109.026 -118.112,172.625 -118.112,270.567zm160.361,56.512c19.628,-4.543 35.243,-21.26 39.786,-39.52c1.552,-8.544 8.994,-14.993 17.905,-14.993c9.987,0 18.168,8.181 18.168,18.167c0,13.079 -10.992,32.983 -25.978,47.876c-14.726,14.543 -32.261,24.81 -46.703,24.81c-9.991,0 -18.172,-8.447 -18.172,-18.436c0.001,-8.91 6.45,-16.36 14.994,-17.904z" clip-rule="evenodd"/>
 </g>
</svg>