<svg width="288" height="288" xmlns="http://www.w3.org/2000/svg">

 <g>
  <title>background</title>
  <rect fill="none" id="canvas_background" height="402" width="582" y="-1" x="-1"/>
 </g>
 <g>
  <title>Layer 1</title>
  <path fill="#0099cc" id="svg_1" d="m144,160l-30,110c-4,15 -28,9 -24,-6l43,-150c-8,-4 -13,-12 -13,-21c0,-13 10,-24 24,-24s24,11 24,24c0,9 -5,17 -13,21l43,150c4,15 -20,21 -24,6l-30,-110zm-121,-145c9,-14 29,-1 20,13c-25,39 -26,89 0,130c8,13 -11,27 -20,13c-15,-23 -23,-50 -23,-78s8,-55 23,-78zm52,30c9,-13 29,0 19,15c-14,20 -13,47 1,67c9,13 -11,26 -20,14c-20,-29 -20,-67 0,-96zm190,-30c15,23 23,50 23,78s-8,55 -23,78c-9,14 -28,0 -20,-13c26,-41 25,-91 0,-130c-9,-14 11,-27 20,-13zm-52,30c20,29 20,67 0,96c-9,12 -29,-1 -20,-14c14,-20 15,-47 1,-67c-10,-15 10,-28 19,-15z"/>
 </g>
</svg>