<svg width="16" height="16" xmlns="http://www.w3.org/2000/svg">
 <title/>

 <g>
  <title>background</title>
  <rect fill="none" id="canvas_background" height="402" width="582" y="-1" x="-1"/>
 </g>
 <g>
  <title>Layer 1</title>
  <g id="Icons with numbers" fill-rule="evenodd" fill="none">
   <g id="Group" fill="#000000">
    <path fill="#0099cc" id="Rectangle 166" d="m1,0l13,0l0,16l-13,0l0,-16zm1,1l0,2l5,0l0,-2l-5,0zm0,3l0,2l5,0l0,-2l-5,0zm0,3l0,2l5,0l0,-2l-5,0zm0,3l0,2l5,0l0,-2l-5,0zm0,3l0,2l5,0l0,-2l-5,0zm6,-12l0,2l5,0l0,-2l-5,0zm0,3l0,2l5,0l0,-2l-5,0zm0,3l0,2l5,0l0,-2l-5,0zm0,3l0,2l5,0l0,-2l-5,0zm0,3l0,2l5,0l0,-2l-5,0zm0,0"/>
   </g>
  </g>
 </g>
</svg>